<!DOCTYPE svg PUBLIC "-//W3C//DTD SVG 20010904//EN" "http://www.w3.org/TR/2001/REC-SVG-20010904/DTD/svg10.dtd">
<svg version="1.0" xmlns="http://www.w3.org/2000/svg" width="672px" height="673px" viewBox="0 0 6720 6730" preserveAspectRatio="xMidYMid meet">
<g id="layer101" fill="#00c416" stroke="none">
 <path d="M1760 6622 c-44 -17 -45 -19 -63 -87 -63 -248 -96 -527 -104 -870 -15 -660 86 -1121 299 -1359 95 -107 199 -156 387 -182 190 -26 282 -44 380 -76 179 -57 358 -153 449 -241 52 -51 54 -63 4 -38 -21 10 -85 35 -143 54 -239 81 -437 118 -724 137 -88 6 -191 15 -229 20 -38 6 -71 8 -74 6 -14 -14 177 -496 227 -573 48 -75 99 -116 168 -138 48 -15 83 -17 311 -10 294 8 420 -1 643 -45 223 -45 430 -118 535 -190 48 -34 104 -87 104 -101 0 -4 -37 6 -82 23 -194 73 -378 117 -570 138 -122 13 -471 13 -603 0 -55 -6 -162 -10 -237 -10 l-137 -1 33 -72 c64 -139 284 -573 334 -657 95 -160 140 -185 358 -200 182 -13 280 -25 404 -52 209 -44 462 -146 620 -248 126 -82 234 -180 217 -197 -3 -2 -31 9 -63 25 -97 49 -331 138 -460 176 -238 69 -471 106 -748 121 l-119 7 28 -49 c157 -271 507 -750 789 -1082 174 -204 197 -233 191 -239 -10 -10 -269 172 -370 259 -94 81 -190 180 -329 341 -32 38 -61 68 -65 68 -10 0 -70 -257 -83 -353 -10 -71 -8 -114 7 -255 9 -93 15 -176 13 -183 -7 -20 -105 187 -130 276 -32 111 -32 312 0 468 28 136 28 230 3 296 -11 27 -73 136 -139 242 -121 196 -258 434 -327 566 -20 40 -40 73 -44 73 -16 0 -110 -286 -160 -487 -95 -376 -117 -620 -78 -840 10 -57 17 -108 15 -115 -6 -16 -61 82 -87 152 -115 315 -79 788 97 1261 96 256 96 258 -22 511 -92 200 -191 423 -211 478 -7 19 -23 57 -35 85 l-21 50 -85 -165 c-220 -430 -275 -612 -329 -1080 -9 -74 -20 -139 -25 -144 -11 -11 -36 72 -51 176 -18 126 -6 385 25 528 48 221 83 322 197 560 105 222 120 269 126 410 5 105 3 122 -21 193 -15 43 -52 133 -82 200 -61 132 -124 300 -124 332 0 17 -2 17 -14 5 -26 -28 -167 -276 -245 -430 -171 -337 -270 -664 -302 -995 -16 -167 -6 -495 20 -655 63 -388 208 -783 425 -1159 172 -298 319 -489 542 -703 370 -356 842 -545 1309 -524 282 12 545 93 783 240 449 278 748 756 812 1297 20 171 9 473 -24 636 -78 391 -232 737 -504 1133 -536 782 -1145 1238 -1822 1365 -80 15 -192 36 -249 46 -188 36 -334 115 -400 218 -64 100 -83 170 -89 327 -2 80 1 186 8 245 25 220 103 534 211 850 28 82 49 156 45 164 -19 50 -211 81 -296 47z"/>
 <path d="M920 5779 c-60 -24 -120 -110 -120 -172 0 -31 6 -37 143 -127 246 -162 562 -348 573 -337 8 7 -65 218 -93 268 -43 79 -89 126 -253 256 -164 130 -183 139 -250 112z"/>
 <path d="M3360 5494 c-19 -2 -80 -9 -135 -15 -274 -29 -500 -93 -745 -210 -91 -43 -192 -85 -225 -94 -78 -20 -213 -18 -298 4 l-67 17 6 -20 c21 -72 103 -173 179 -221 76 -49 159 -73 379 -110 l201 -34 165 99 c284 171 460 232 843 295 15 2 27 1 27 -4 0 -5 -98 -59 -217 -121 -120 -62 -270 -142 -333 -178 -108 -61 -260 -158 -260 -166 0 -2 30 -16 66 -30 110 -44 274 -121 373 -175 52 -28 97 -49 101 -46 4 3 68 55 141 116 74 61 177 139 229 174 233 156 570 285 785 301 99 8 100 8 -125 -111 -410 -217 -505 -281 -693 -464 l-148 -145 68 -43 c93 -60 203 -112 363 -173 152 -57 232 -80 281 -80 47 0 118 36 231 118 250 180 491 261 841 282 198 12 187 12 187 0 0 -5 -57 -27 -127 -49 -71 -22 -193 -60 -273 -85 -161 -50 -289 -109 -395 -181 -123 -83 -245 -179 -237 -186 9 -9 291 -92 387 -114 116 -27 277 -63 545 -121 273 -59 394 -90 419 -104 23 -13 -431 -12 -565 1 -60 6 -140 17 -179 24 -38 7 -71 12 -73 10 -9 -9 151 -247 243 -361 145 -180 170 -213 163 -220 -9 -8 -129 49 -194 92 -105 70 -171 141 -270 292 -148 225 -183 251 -429 322 -77 23 -225 73 -330 111 -104 39 -199 73 -210 76 -11 4 28 -44 87 -105 298 -309 568 -724 754 -1161 l49 -113 115 7 c464 28 810 192 999 475 106 158 151 319 151 537 0 638 -368 1177 -1042 1528 -323 167 -694 280 -1112 336 -144 19 -600 34 -696 23z"/>
 </g>
<g id="layer102" fill="#27d088" stroke="none">
 <path d="M1783 5360 c0 -25 2 -35 4 -22 2 12 2 32 0 45 -2 12 -4 2 -4 -23z"/>
 <path d="M5428 4463 c12 -2 32 -2 45 0 12 2 2 4 -23 4 -25 0 -35 -2 -22 -4z"/>
 <path d="M5618 3603 c34 -2 90 -2 125 0 34 2 6 3 -63 3 -69 0 -97 -1 -62 -3z"/>
 <path d="M2378 3073 c12 -2 30 -2 40 0 9 3 -1 5 -23 4 -22 0 -30 -2 -17 -4z"/>
 <path d="M4983 2593 c15 -2 39 -2 55 0 15 2 2 4 -28 4 -30 0 -43 -2 -27 -4z"/>
 </g>

</svg>